<?xml version="1.0" encoding="UTF-8"?>
<svg id="Layer_1" xmlns="http://www.w3.org/2000/svg" version="1.1" viewBox="0 0 667.46 250">
  <!-- Generator: Adobe Illustrator 29.6.1, SVG Export Plug-In . SVG Version: 2.1.1 Build 9)  -->
  <g id="_x32_0avdw">
    <g>
      <path d="M128.1,239.15c1.52,1.12,8.4-7.67,9.64-8.95,18.34-18.98,39.18-41.61,55.03-62.65,5.42-7.18,8.15-14.65,11.34-23.03,1.76-4.62,3.32-16.52,10.14-15.81,6.12.64,19.6,9.6,16.96,17.02-1.24,3.5-3.77,7.66-5.22,11.26-5.82,14.41-12.18,29.09-16.95,43.77-1.09,3.35-2.99,8.17-3.63,11.43-.77,3.91,2.21,4.83,5.42,3.54,4.14-1.68,9.98-9.28,13.35-12.54,14.14-13.65,28.25-27.27,42.07-41.25,2.1-2.13,4.73-3.98,6.85-6.33,9.03-9.99,10.1-20.39,14.72-32.35,3.01-7.8,6.58-15.53,9.64-23.31,3.26-8.28,13.95-3.17,13.54,4.6-.19,3.53-3.41,11.75-4.73,15.51-5.18,14.82-11.56,29.87-16.37,44.82-2.96,9.18-3.41,20-5.04,29.56,2.42.48,2.12-1.12,3.09-2.33,10.57-13.26,21.33-26.47,31.46-40.09,3.66-4.93,5.42-8.18,8.2-13.45,3.87-7.33,5.21-4.93,12.07-4.83,5.71.08,16.65-2.59,18.03,5.5.72,4.21-1.37,10.5-2.48,14.71-5.42,20.58-14.01,42.82-17.99,63.45-1.43,7.42-.35,7.91,4.59,2.71,12.69-13.37,28.51-35.86,38.97-51.41,9.06-13.47,12.86-32.45,17.38-48.06,4.62-15.98,8.45-33.07,14.02-48.59.7-1.94,4.04-7.93,3.3-9.42-.38-.77-1.12-.87-1.88-.97-5.6-.73-11.85.37-17.42.51-36.58.91-73.1,2.82-109.71,3.74l-15.05,3.33c-3.54-.16-8.08-7.54-4.98-10.18,3.37-2.86,6.69.36,10.15.3,10.55-.16,21.44-1,32.03-1.43,26.29-1.07,52.7-2.97,79.05-3.8,7.65-.24,15.48.4,23.11.04,2.04-.1,5.66-.24,7.48-.52,3.05-.47,2.45-2.66,3.37-4.63,1.11-2.36,6.36-13.38,7.68-14.45,1.84-1.48,8.09.23,10.38.99,3.84,1.27,14.04,6.83,14.97,10.91.71,3.11-1.95,5.04-.06,7.14,10.32-1.21,20.64-1.46,31.02-1.8,2.32-.08,11.17-1.46,12.5.17,2.1,2.59-3.43,5.76-5.58,6.28-10.53,2.56-24.68.47-35.61,2.05-1.82.26-5.82,1.1-6.81,2.6-2.32,3.51-3.25,7.96-4.75,11.73-12.96,32.72-25.51,68.37-34.63,102.36-2.72,10.14-7.43,27.85-7.77,37.92-.09,2.77.83,7.17,4.41,5.33,1.56-.8,6.61-5.5,8.08-6.98,3.67-3.69,6.41-7.94,9.65-12,14.92-18.72,29.26-37.71,42.55-57.72,4.76-7.17,15.26-26.76,22.24-30.48,4.28-2.28,4.93.07,8.61,1.12,2.98.85,11,.7,11.71,4.33.43,2.18-2.99,9.91-4.23,12.05-.87,1.51-5.92,7.38-5.99,8.15-.29,3.05,8.55-.75,9.81-1.04,6.42-1.46,14.7-.56,21.44-1.16,4.98-.44,16.92-1.96,21.22-3.73,3.07-1.26,3.53-6.68,4.68-9.44,3.76-9.04,8.4-17.82,12.21-26.86,2.39-2.77,8.35-1.06,10.36,1.45,1.64,2.06,1.42,5.97.98,8.48-1.39,7.99-7.41,20.6-10.17,28.91-5.59,16.86-10.99,33.96-15.74,51.1-.52,1.89-4.35,12.8-3.53,13.64.32.33,1.18-.1,1.63-.48,1.33-1.15,4.47-9.01,5.99-11.43,10.16-16.15,25.01-27.96,35.32-42.82,2.22-3.21,5.33-11.21,9.06-11.65,6.71,1.04,23.09-4.61,23.68,6.04-4.21,25.14-13.06,49.53-18.49,74.46-.57,2.61-.67,5.3-1.64,7.82.41,3.15,2.26,1.04,3.53-.28,2.25-2.35,4.97-6.28,7.02-8.99,13.91-18.45,26.19-39.16,41.24-56.67.88-1.02,5.49-6.31,6.11-6.6,4.33-2,2.4,3.24,1.49,5.26-2.18,4.87-6.38,8.43-9.49,12.64-5.29,7.15-10.07,14.69-15.36,21.83-6.97,9.4-15.46,18.86-22.04,28.33-4.13,5.95-12.19,23.58-17.66,26.59-5.88,3.24-18.79,3.77-22.23-3.24s.29-23.54,2.11-31.02c3.7-15.25,12.2-33.05,12.61-48.62.06-2.15-.27-4.06-2.66-2.61-1.49.9-5.73,5.13-7.04,6.61-11.71,13.22-21.2,33.22-26.81,49.92-1.65,4.92-.34,9.03-7.53,9.43-2,.11-9.43-.49-11.19-1.09-2.2-.76-3.63-2.98-4.35-5.07-4.65-13.52,5.03-45.11,9.5-59.2,1.96-6.19,5.29-13.08,6.87-19.02.24-.91.43-1.79.32-2.74l-36.66,5.24c.25,3.24,2.01,6.08,2.31,9.58,1.93,22.67-18.07,68.72-41.9,74.88-18.54,4.79-29.64-4-30.61-22.62-.39-7.5,1.19-14.99,1.17-22.36-.8-.06-1.15.74-1.56,1.26-10.04,12.72-26.54,46.01-44.15,48.12-25.17,3.01-22.72-25.82-19.83-42.42.57-3.28,3.5-12.24,3.18-14.72-.22-1.65-1.96.06-2.57.73-10.02,11.03-18.71,27.63-27.18,40.14-3.85,5.69-8.74,10.78-12.54,16.17-4.26,6.03-5.57,13.79-14.56,15.1-29.03,4.2-16.99-35.86-12.22-51.29,2.87-9.31,10.24-26.33,10.26-35.44,0-1.96-.75-2.93-2.4-1.41-11.31,10.4-22.5,29.07-28.33,43.22-2.17,5.26-5.47,17.67-8.63,21.5-2.39,2.9-5.22.68-7.99.49-4.26-.28-10.2,1.72-11.87-3.19-2.8-8.21.25-28.43,1.89-37.41.56-3.1,1.28-6.74,1.97-9.8.35-1.56,1.62-2.87,1.2-4.68-.94-.14-1.58.25-2.33.73-2.75,1.77-6.7,6.38-9.21,8.68-9.24,8.49-18.35,17.11-27.54,25.65-9.6,8.91-22.43,24.16-37.28,19.88-14.72-4.24-10.87-25.08-7.78-36.23.55-1.98,2.06-4.66,2.7-6.72.2-.63-.06-.87-.69-.69-1.56.45-3.28,4.37-4.49,5.87-12.29,15.15-24.4,30.84-37.41,45.44-4.75,5.33-14.64,17.2-21.4,18.61-8.74,1.83-20.14-7.68-21.56-16.15-2.36-14,2.89-38.08,5.67-52.46.95-4.9,4.2-15.01,3.64-19.44-.09-.67.23-.82-.71-.7l-20.26,18.34c-12.21,12.24-24.59,24.34-37.19,36.25-4.16,3.93-6.21,7.2-11.57,10.08-11.63,6.25-27.48,11.56-36.87-1.15-1.41-1.91-5.46-11.24-5.79-13.51-1.14-7.71,3.44-25.14,5.55-33.27,4.54-17.48,13.32-43.67,27.32-55.53,13.25-11.24,28.69-17.09,46.32-15.33,20.94,2.09,18.6,31.95,3.72,35.72-10.96,2.77-5.19-3.62-3.13-8.31,2.82-6.41,5.8-17.21-1.9-21.39-7.47-4.06-13.6.03-18.94,5.26-17.75,17.39-32.9,70.94-31.32,95.36.28,4.32,1.58,12.76,7.5,9.81,2.65-1.31,11.78-8.95,14.59-11.3,8.79-7.39,17.01-15.81,25.52-23.43,13.41-12,27.2-23.66,39.97-36.29,8.64-27.04,19.51-52.6,32.35-77.8,10.95-21.49,30.3-60.22,52.21-71.13,3.71-1.85,8.13-4.27,12.33-3.05.53.16,5.26,2.64,5.89,3.05,16.05,10.27,4.28,35.63-2.26,48.44-15.87,31.05-40.07,55.96-62.81,81.7-4.75,18.62-10.94,36.95-15.47,55.61-2.72,11.21-5.29,23.02-7.51,34.38-.72,3.69-2.29,10.21-2.37,13.65,0,.42.21,1.87.35,1.97ZM209.88,13.74c-2.46.52-8.26,7.18-9.96,9.37-17.04,22.07-30.27,59.43-38.64,86.11-.78,2.48-2.89,6.65-3.33,8.92-.11.59-.3,1.87.5,1.9,1.11.03,4.61-5.39,5.65-6.59,7.14-8.25,14.55-16.25,21.15-24.99,11.93-15.8,34.99-49.72,28.67-70.01-.5-1.62-2.1-5.13-4.04-4.72ZM495.63,147.48c-.7.18-1.68,1.02-2.16,1.6-5.6,6.74-13.37,22.67-17.04,30.98-4.51,10.22-7.69,21.08-6.06,32.46.59,4.12,4.17,8.23,8.59,6.32,6.72-2.89,15.54-16.76,19.22-23.15,7.64-13.26,13.33-26.14,8.72-41.84-1.37-4.67-6.53-7.59-11.28-6.38Z"/>
      <path d="M232.49,83.42c4.16-.46,14.41,6.05,14.69,10.56.06,1.01-.46,1.84-.42,2.73.18,3.82,2.28,5.56-.49,9.94-1.35,2.14-6.74,5.3-9.24,5.39-1.1.04-10.01-4.3-10.81-5.14-.72-.75-1.99-6.16-2.05-7.4-.22-4.26,3.37-15.53,8.33-16.08Z"/>
    </g>
  </g>
</svg>